<svg width="1326" height="905" viewBox="0 0 1326 905" fill="none" xmlns="http://www.w3.org/2000/svg">
<g clip-path="url(#clip0_69_2)">
<path d="M241.891 678.619C241.891 679.473 242.369 680.159 242.964 680.159H778.064C778.664 680.159 779.137 679.474 779.137 678.619C779.137 677.764 778.659 677.079 778.064 677.079H242.964C242.369 677.08 241.891 677.765 241.891 678.619Z" fill="#CCCCCC"/>
<path d="M436.267 673.543H417.162V676.843H436.267V673.543Z" fill="#B6B3C5"/>
<path d="M605.4 674.094H586.295V677.394H605.4V674.094Z" fill="#B6B3C5"/>
<path d="M538.676 526.656C537.612 532.956 534.298 538.683 529.324 542.814C524.35 546.945 518.039 549.213 511.516 549.213C504.993 549.213 498.682 546.945 493.708 542.814C488.733 538.683 485.419 532.956 484.355 526.656H414.867V674.091H608.167V526.656H538.676Z" fill="#D6D6E3"/>
<path d="M608.726 662.41H415.43V667.542H608.726V662.41Z" fill="#090814"/>
<path d="M900.255 530.509H122.776C119.919 530.506 117.18 529.394 115.16 527.416C113.14 525.438 112.003 522.756 112 519.959V85.5512C112.003 82.7539 113.139 80.0719 115.159 78.0939C117.18 76.1158 119.919 75.0031 122.776 75H900.255C903.112 75.0034 905.851 76.116 907.871 78.0938C909.891 80.0716 911.028 82.7531 911.031 85.5502V519.959C911.028 522.756 909.891 525.438 907.871 527.415C905.851 529.393 903.112 530.506 900.255 530.509Z" fill="#090814"/>
<path d="M890.926 91.6986H130.104V511.999H890.926V91.6986Z" fill="white"/>
<path d="M373.408 267.038C369.965 267.038 367.166 268.24 367.166 269.714V271.857C367.166 273.334 369.966 274.534 373.408 274.534H518.242C521.685 274.534 524.484 273.332 524.484 271.857V269.716C524.484 268.24 521.684 267.04 518.242 267.04L373.408 267.038Z" fill="#F2F2F2"/>
<path d="M322 157.24H702C704.122 157.24 706.157 158.065 707.657 159.534C709.157 161.003 710 162.995 710 165.072V511.654H314V165.072C314 162.995 314.843 161.003 316.343 159.534C317.843 158.065 319.878 157.24 322 157.24Z" fill="#E6E6E6"/>
<path d="M332 167.03H693C695.122 167.03 697.157 167.855 698.657 169.324C700.157 170.793 701 172.785 701 174.863V511.654H324V174.863C324 172.785 324.843 170.793 326.343 169.324C327.843 167.855 329.878 167.03 332 167.03Z" fill="white"/>
<path d="M645.597 194.285C651.797 194.285 656.834 196.941 656.834 200.203V246.265C656.834 249.531 651.793 252.184 645.597 252.184H378.403C372.203 252.184 367.166 249.527 367.166 246.265V200.207C367.166 196.941 372.207 194.289 378.403 194.289" fill="#D6D6E3"/>
<path d="M373.408 281.61C369.965 281.61 367.166 283.086 367.166 284.9C367.166 286.714 369.966 288.191 373.408 288.191H595.654C599.097 288.191 601.896 286.714 601.896 284.9C601.896 283.086 599.096 281.61 595.654 281.61H373.408Z" fill="#F2F2F2"/>
<path d="M373.408 295.268C369.965 295.268 367.166 296.745 367.166 298.559C367.166 300.373 369.966 301.849 373.408 301.849H595.654C599.097 301.849 601.896 300.373 601.896 298.559C601.896 296.745 599.096 295.268 595.654 295.268H373.408Z" fill="#F2F2F2"/>
<path d="M373.408 316.703C369.965 316.703 367.166 317.905 367.166 319.379V321.522C367.166 322.999 369.966 324.199 373.408 324.199H518.242C521.685 324.199 524.484 322.997 524.484 321.522V319.381C524.484 317.905 521.684 316.705 518.242 316.705L373.408 316.703Z" fill="#D6D6E3"/>
<path d="M373.408 331.276C369.965 331.276 367.166 332.752 367.166 334.566C367.166 336.38 369.966 337.857 373.408 337.857H595.654C599.097 337.857 601.896 336.38 601.896 334.566C601.896 332.752 599.096 331.276 595.654 331.276H373.408Z" fill="#F2F2F2"/>
<path d="M373.408 344.934C369.965 344.934 367.166 346.411 367.166 348.225C367.166 350.039 369.966 351.515 373.408 351.515H595.654C599.097 351.515 601.896 350.039 601.896 348.225C601.896 346.411 599.096 344.934 595.654 344.934H373.408Z" fill="#F2F2F2"/>
<path d="M373.408 366.369C369.965 366.369 367.166 367.571 367.166 369.045V371.188C367.166 372.665 369.966 373.865 373.408 373.865H518.242C521.685 373.865 524.484 372.663 524.484 371.188V369.047C524.484 367.571 521.684 366.37 518.242 366.37L373.408 366.369Z" fill="#F2F2F2"/>
<path d="M373.408 380.941C369.965 380.941 367.166 382.417 367.166 384.231C367.166 386.045 369.966 387.522 373.408 387.522H595.654C599.097 387.522 601.896 386.045 601.896 384.231C601.896 382.417 599.096 380.941 595.654 380.941H373.408Z" fill="#F2F2F2"/>
<path d="M373.408 394.599C369.965 394.599 367.166 396.076 367.166 397.89C367.166 399.704 369.966 401.18 373.408 401.18H595.654C599.097 401.18 601.896 399.704 601.896 397.89C601.896 396.076 599.096 394.599 595.654 394.599H373.408Z" fill="#F2F2F2"/>
<path d="M675.79 284.012C675.709 284.012 675.628 284.006 675.548 283.995C675.332 283.964 675.125 283.893 674.939 283.784C674.752 283.674 674.589 283.53 674.46 283.359L664.269 269.981C664.226 269.924 664.168 269.88 664.102 269.852C664.036 269.824 663.963 269.814 663.892 269.822C663.82 269.83 663.752 269.857 663.695 269.899C663.637 269.941 663.591 269.997 663.563 270.062L658.34 282.025C658.203 282.336 657.971 282.597 657.675 282.772C657.379 282.947 657.034 283.027 656.69 283.001C656.345 282.975 656.017 282.844 655.752 282.627C655.487 282.409 655.299 282.116 655.213 281.788L644.791 242.293C644.709 241.981 644.723 241.653 644.833 241.349C644.942 241.045 645.141 240.78 645.405 240.588C645.669 240.396 645.985 240.284 646.313 240.268C646.642 240.252 646.968 240.333 647.25 240.499L682.936 261.548C683.231 261.723 683.464 261.984 683.6 262.295C683.737 262.605 683.771 262.95 683.698 263.281C683.625 263.611 683.448 263.911 683.192 264.138C682.936 264.365 682.614 264.509 682.271 264.548L669.071 266.046C668.999 266.054 668.931 266.081 668.873 266.123C668.815 266.165 668.77 266.221 668.741 266.286C668.713 266.351 668.702 266.422 668.711 266.492C668.719 266.562 668.746 266.628 668.789 266.685L678.983 280.058C679.245 280.403 679.357 280.836 679.294 281.261C679.23 281.687 678.997 282.071 678.646 282.328L676.78 283.69C676.493 283.898 676.146 284.009 675.79 284.007V284.012Z" fill="#E31C3A"/>
<path d="M678.205 284.9H760.489C762.611 284.9 764.646 285.725 766.146 287.194C767.646 288.663 768.489 290.655 768.489 292.733V308.32C768.489 310.397 767.646 312.389 766.146 313.858C764.646 315.327 762.611 316.152 760.489 316.152H678.205C676.083 316.152 674.049 315.327 672.548 313.858C671.048 312.389 670.205 310.397 670.205 308.32V292.733C670.205 290.655 671.048 288.663 672.548 287.194C674.049 285.725 676.083 284.9 678.205 284.9Z" fill="#E31C3A"/>
<path d="M366.989 360.449C367.07 360.449 367.151 360.443 367.231 360.432C367.446 360.401 367.653 360.33 367.84 360.221C368.027 360.111 368.19 359.967 368.319 359.796L378.505 346.419C378.548 346.362 378.606 346.318 378.672 346.29C378.738 346.262 378.811 346.252 378.882 346.26C378.953 346.268 379.021 346.295 379.079 346.337C379.137 346.379 379.182 346.435 379.211 346.5L384.434 358.463C384.571 358.774 384.803 359.035 385.099 359.21C385.395 359.385 385.739 359.465 386.084 359.439C386.429 359.413 386.757 359.282 387.021 359.065C387.286 358.847 387.475 358.554 387.561 358.226L397.983 318.731C398.065 318.419 398.05 318.091 397.941 317.787C397.832 317.483 397.632 317.218 397.369 317.026C397.105 316.834 396.789 316.722 396.46 316.706C396.132 316.69 395.806 316.771 395.524 316.937L359.838 337.986C359.542 338.161 359.31 338.422 359.173 338.733C359.037 339.043 359.003 339.388 359.076 339.719C359.149 340.049 359.326 340.349 359.582 340.576C359.838 340.803 360.16 340.947 360.503 340.986L373.703 342.484C373.775 342.492 373.843 342.519 373.9 342.561C373.958 342.603 374.004 342.659 374.032 342.724C374.061 342.789 374.072 342.86 374.063 342.93C374.055 343 374.028 343.066 373.985 343.123L363.795 356.495C363.533 356.84 363.421 357.273 363.484 357.698C363.547 358.124 363.78 358.508 364.132 358.765L365.998 360.127C366.284 360.335 366.632 360.446 366.988 360.444L366.989 360.449Z" fill="#E31C3A"/>
<path d="M364.573 361.337H282.289C280.167 361.337 278.132 362.162 276.632 363.631C275.132 365.1 274.289 367.092 274.289 369.17V384.757C274.289 386.834 275.132 388.826 276.632 390.295C278.132 391.764 280.167 392.589 282.289 392.589H364.573C366.695 392.589 368.73 391.764 370.23 390.295C371.73 388.826 372.573 386.834 372.573 384.757V369.17C372.573 367.092 371.73 365.1 370.23 363.631C368.73 362.162 366.695 361.337 364.573 361.337Z" fill="#E31C3A"/>
<path d="M822 151.366C829.732 151.366 836 145.229 836 137.659C836 130.089 829.732 123.952 822 123.952C814.268 123.952 808 130.089 808 137.659C808 145.229 814.268 151.366 822 151.366Z" fill="#E6E6E6"/>
<path d="M802 151.366C809.732 151.366 816 145.229 816 137.659C816 130.089 809.732 123.952 802 123.952C794.268 123.952 788 130.089 788 137.659C788 145.229 794.268 151.366 802 151.366Z" fill="#D6D6E3"/>
<path d="M782 151.366C789.732 151.366 796 145.229 796 137.659C796 130.089 789.732 123.952 782 123.952C774.268 123.952 768 130.089 768 137.659C768 145.229 774.268 151.366 782 151.366Z" fill="#E31C3A"/>
</g>
<g clip-path="url(#clip1_69_2)">
<path d="M841.635 483.311H760.628C757.355 483.306 754.218 482.004 751.903 479.69C749.589 477.376 748.287 474.238 748.282 470.965V389.957C748.287 386.684 749.589 383.546 751.903 381.232C754.218 378.918 757.355 377.615 760.628 377.611H841.635C844.908 377.615 848.046 378.918 850.36 381.232C852.675 383.546 853.977 386.684 853.981 389.957V470.966C853.977 474.239 852.674 477.376 850.36 479.69C848.046 482.004 844.908 483.306 841.635 483.311ZM760.628 379.586C757.878 379.586 755.24 380.679 753.295 382.623C751.35 384.568 750.257 387.206 750.256 389.957V470.966C750.256 473.717 751.349 476.355 753.294 478.3C755.239 480.245 757.878 481.338 760.628 481.338H817.371C826.558 481.338 835.367 477.689 841.863 471.193C848.358 464.698 852.007 455.888 852.007 446.702V389.957C852.007 388.595 851.739 387.246 851.218 385.988C850.697 384.729 849.933 383.586 848.97 382.623C848.006 381.66 846.863 380.896 845.605 380.374C844.346 379.853 842.998 379.585 841.635 379.585L760.628 379.586Z" fill="#F2F2F2"/>
<path d="M841.635 483.311H760.628C757.355 483.306 754.218 482.004 751.903 479.69C749.589 477.376 748.287 474.238 748.282 470.965V389.957C748.287 386.684 749.589 383.546 751.903 381.232C754.218 378.918 757.355 377.615 760.628 377.611H841.635C844.908 377.615 848.046 378.918 850.36 381.232C852.675 383.546 853.977 386.684 853.981 389.957V470.966C853.977 474.239 852.674 477.376 850.36 479.69C848.046 482.004 844.908 483.306 841.635 483.311Z" fill="#E31C3A"/>
<path d="M800.638 359.83C794.636 359.83 789.771 354.965 789.771 348.963C789.771 342.961 794.636 338.096 800.638 338.096C806.64 338.096 811.505 342.961 811.505 348.963C811.505 354.965 806.64 359.83 800.638 359.83Z" fill="#E31C3A"/>
<path d="M941.888 476.334C941.888 476.334 927.066 473.778 905.088 453.845C887.699 438.079 864.244 441.179 855.2 443.167C854.892 443.233 854.611 443.392 854.396 443.623C854.181 443.854 854.041 444.145 853.997 444.457C853.952 444.77 854.004 445.088 854.146 445.37C854.287 445.652 854.512 445.884 854.789 446.034C858.445 448.034 864.111 450.956 866.767 451.289C866.767 451.289 861.289 456.956 867.111 459.989C867.809 460.331 868.587 460.473 869.36 460.399C870.133 460.324 870.871 460.036 871.489 459.567C874.289 457.523 882.067 462.167 893.344 464.578C893.344 464.578 937.299 510.066 947.521 502.355L941.888 476.334Z" fill="#9F616A"/>
<path d="M1017.57 414.49C1017.57 414.49 1021.66 431.867 1017.57 444.134L1035.97 446.69L1052.32 438.512V427.779C1052.32 427.779 1044.65 411.424 1046.7 392.513L1017.57 414.49Z" fill="#9F616A"/>
<path d="M1069.66 791.152C1069.66 791.152 1083 817.218 1080.91 834.596C1078.82 851.974 1098.29 836.64 1096.24 826.418C1095.81 838.792 1101.96 783.085 1104.84 770.041C1105.15 768.631 1104.93 767.156 1104.22 765.902C1103.5 764.647 1102.35 763.703 1100.98 763.252C1094.83 761.23 1084.54 758.752 1079.38 762.541C1071.74 768.152 1069.66 791.152 1069.66 791.152Z" fill="#090814"/>
<path d="M1019.1 819.773C1019.1 819.773 1001.72 842.261 997.121 842.773C992.521 843.285 989.454 850.44 997.121 851.973C1012.43 854.637 1028.17 853.102 1042.68 847.529C1044.13 846.963 1045.35 845.926 1046.14 844.584C1046.93 843.242 1047.25 841.673 1047.04 840.129L1044.11 818.24L1019.1 819.773Z" fill="#090814"/>
<path d="M990.477 581.099L973.811 583.319C976.099 602.785 976.031 622.457 973.611 641.907V711.907C973.611 711.907 973.289 718.074 986.089 727.04C999.511 736.371 1012.45 746.384 1024.84 757.04L1071.22 797.219C1071.22 797.219 1089.62 774.73 1087.06 761.442C1087.06 761.442 1056.4 751.731 1052.31 735.887C1049.97 726.82 1038.08 719.221 1028.34 714.443C1022.22 711.472 1017.31 706.496 1014.41 700.343C1011.51 694.19 1010.8 687.23 1012.4 680.619C1012.97 678.322 1013.85 676.112 1015.01 674.052C1023.19 659.741 1034.94 627.542 1034.94 627.542L1012.46 584.677L990.477 581.099Z" fill="#090814"/>
<path d="M1015.01 821.339C1015.01 821.339 1045.17 826.45 1046.19 829.517C1047.21 832.584 1046.19 825.428 1046.19 825.428C1046.19 825.428 1063.57 772.784 1059.52 726.285C1055.48 679.786 1064.63 649.108 1064.63 649.108C1064.63 649.108 1075.37 614.353 1069.23 594.42C1063.1 574.487 998.701 583.176 998.701 583.176C998.701 583.176 1021.19 635.82 1020.68 660.864C1020.68 660.864 1023.23 736.507 1027.83 745.196C1027.79 745.153 1020.64 819.263 1015.01 821.339Z" fill="#090814"/>
<path d="M1018.56 427.779C1018.56 427.779 1021.62 446.668 1052.29 438.512L1031.89 593.876C1031.89 593.876 972.6 595.92 973.111 588.765L985.333 494.733L1018.56 427.779Z" fill="white"/>
<path d="M1018.48 428C1013.91 431.573 1008.45 433.822 1002.69 434.5C997.6 434.89 992.653 436.36 988.177 438.811C982.922 441.755 977.066 446.033 975.288 451.244C971.71 461.466 949.222 478.332 939 474.755L942.577 505.421C942.577 505.421 971.71 503.888 976.821 492.643L968.143 602.075H975.81C975.81 602.075 979.899 572.431 982.966 566.298C986.033 560.165 992.166 526.432 992.677 518.254C993.188 510.076 1000.86 463.054 1007.5 454.922L1018.49 431.155L1018.48 428Z" fill="#E31C3A"/>
<path opacity="0.1" d="M1045.42 407.591C1044.75 402.747 1046.09 399.724 1046.7 394.047L1017.57 416.024C1017.57 416.024 1018.27 418.991 1018.8 423.335C1020.27 423.572 1021.75 423.691 1023.24 423.691C1033.36 423.691 1040.63 415.791 1045.42 407.591Z" fill="black"/>
<path d="M1023.19 422.169C1007.95 422.169 995.589 409.812 995.589 394.569C995.589 379.326 1007.95 366.969 1023.19 366.969C1038.43 366.969 1050.79 379.326 1050.79 394.569C1050.79 409.812 1038.43 422.169 1023.19 422.169Z" fill="#9F616A"/>
<path d="M995.449 371.067C995.286 366.772 995.983 362.488 997.5 358.467C997.079 359.1 996.901 359.863 996.999 360.617C997.097 361.37 997.464 362.063 998.033 362.567C998.854 358.183 1001.1 354.195 1004.43 351.225C1002.62 351.525 1001.68 353.768 1002.13 355.553C1002.75 357.296 1003.84 358.831 1005.28 359.983C1005.13 357.283 1006.91 354.763 1009.17 353.283C1011.52 351.933 1014.09 351.003 1016.76 350.535C1015.84 350.86 1015.06 351.479 1014.53 352.295C1014.01 353.111 1013.76 354.079 1013.84 355.047C1013.85 355.376 1013.99 355.689 1014.22 355.919C1014.48 356.083 1014.78 356.162 1015.08 356.145C1017.74 356.247 1020.4 356.189 1023.05 355.971C1026.31 355.604 1029.59 355.43 1032.87 355.448C1043.12 355.879 1053.43 362.883 1055.73 372.882C1056.2 375.308 1056.45 377.773 1056.47 380.245L1056.97 392.869C1057.27 396.552 1057.12 400.256 1056.52 403.903C1055.81 407.269 1054.37 410.438 1052.3 413.182C1050.22 415.927 1047.57 418.179 1044.52 419.78C1040.82 414.417 1040.49 407.525 1039.21 401.136C1039.01 399.662 1038.46 398.257 1037.61 397.036C1037.17 396.432 1036.56 395.979 1035.85 395.74C1035.14 395.501 1034.38 395.488 1033.66 395.703C1032.28 396.257 1031.68 398.369 1032.83 399.313C1031.8 400.523 1029.89 399.621 1028.73 398.544C1025.49 395.474 1023.27 391.494 1022.34 387.13C1021.88 384.935 1021.42 382.23 1019.26 381.479C1018.52 381.275 1017.75 381.223 1016.99 381.325C1012.5 381.633 1005.47 383.489 1001.12 382.063C997.131 380.749 995.449 374.852 995.449 371.067Z" fill="#090814"/>
<path d="M1050.53 422.457L1083.5 450.823C1083.5 450.823 1102.92 470.757 1094.74 502.957C1094.74 502.957 1091.17 549.979 1087.08 552.023C1087.08 552.023 1072.77 580.645 1071.74 607.733C1071.74 607.733 1051.56 567.1 1042.86 590.611C1034.16 614.122 1015 619.499 1015 619.499L1026.25 480.489C1026.25 480.489 1054.62 431.101 1050.53 422.457Z" fill="#E31C3A"/>
<path d="M1065.61 542.267C1065.61 542.267 1073.79 536.645 1087.08 551.978L1054.37 611.266L1043.38 594.677C1043.38 594.677 1066.63 548.911 1065.61 542.267Z" fill="#9F616A"/>
<path opacity="0.1" d="M1060.24 482.212C1060.24 482.212 1061.27 519.012 1057.18 532.812Z" fill="black"/>
<path opacity="0.1" d="M977.444 489.367C977.444 489.367 983.577 487.323 983.577 482.212Z" fill="black"/>
</g>
<defs>
<clipPath id="clip0_69_2">
<rect width="799.031" height="605.159" fill="white" transform="translate(112 75)"/>
</clipPath>
<clipPath id="clip1_69_2">
<rect width="740.981" height="767.246" fill="white" transform="matrix(-1 0 0 1 1104.98 86)"/>
</clipPath>
</defs>
</svg>
